<?xml version="1.0" encoding="UTF-8" standalone="no"?>
<!-- Created with Inkscape (http://www.inkscape.org/) -->

<svg
   xmlns:dc="http://purl.org/dc/elements/1.1/"
   xmlns:cc="http://creativecommons.org/ns#"
   xmlns:rdf="http://www.w3.org/1999/02/22-rdf-syntax-ns#"
   xmlns:svg="http://www.w3.org/2000/svg"
   xmlns="http://www.w3.org/2000/svg"
   xmlns:sodipodi="http://sodipodi.sourceforge.net/DTD/sodipodi-0.dtd"
   xmlns:inkscape="http://www.inkscape.org/namespaces/inkscape"
   width="1000"
   height="1377.8987"
   viewBox="0 0 264.58333 364.56904"
   version="1.1"
   id="svg8"
   inkscape:version="0.92.4 (5da689c313, 2019-01-14)"
   sodipodi:docname="a.svg">
  <defs
     id="defs2">
    <clipPath
       clipPathUnits="userSpaceOnUse"
       id="clipPath9536">
      <path
         d="m 386.677,1058.737 h 69.537 v 95.814 h -69.537 z"
         id="path9534"
         inkscape:connector-curvature="0" />
    </clipPath>
  </defs>
  <sodipodi:namedview
     id="base"
     pagecolor="#ffffff"
     bordercolor="#666666"
     borderopacity="1.0"
     inkscape:pageopacity="0.82352941"
     inkscape:pageshadow="2"
     inkscape:zoom="0.49497475"
     inkscape:cx="1117.9752"
     inkscape:cy="581.71417"
     inkscape:document-units="px"
     inkscape:current-layer="layer1"
     showgrid="false"
     units="px"
     inkscape:window-width="1920"
     inkscape:window-height="1017"
     inkscape:window-x="1912"
     inkscape:window-y="-8"
     inkscape:window-maximized="1"
     inkscape:pagecheckerboard="true"
     fit-margin-top="0"
     fit-margin-left="0"
     fit-margin-right="0"
     fit-margin-bottom="0" />
  <metadata
     id="metadata5">
    <rdf:RDF>
      <cc:Work
         rdf:about="">
        <dc:format>image/svg+xml</dc:format>
        <dc:type
           rdf:resource="http://purl.org/dc/dcmitype/StillImage" />
        <dc:title></dc:title>
      </cc:Work>
    </rdf:RDF>
  </metadata>
  <g
     inkscape:label="Layer 1"
     inkscape:groupmode="layer"
     id="layer1"
     transform="translate(194.54318,363.37397)">
    <g
       transform="matrix(3.8049781,0,0,-3.8049781,-1665.8407,4029.6673)"
       id="g9530">
      <g
         id="g9532"
         clip-path="url(#clipPath9536)">
        <g
           id="g9538"
           transform="translate(438.1381,1098.2144)">
          <path
             d="m 0,0 c 3.535,-1.226 6.885,-2.817 10.004,-4.724 0.538,-0.328 1.12,0.354 0.698,0.822 C 7.761,-0.642 4.372,2.106 0.65,4.212 0.515,4.29 0.49,4.47 0.603,4.579 6.1,9.924 9.514,17.376 9.514,25.621 c 0,2.471 -0.309,4.868 -0.888,7.16 -0.141,0.56 -0.97,0.454 -0.97,-0.125 v -0.041 c 0,-2.126 -0.227,-4.201 -0.662,-6.2 -0.059,-0.275 -0.469,-0.226 -0.461,0.057 0.006,0.228 0.01,0.461 0.01,0.693 0,4.675 -1.429,9.016 -3.873,12.621 -0.304,0.447 -1.005,0.141 -0.886,-0.385 0.34,-1.514 0.525,-3.083 0.476,-4.69 0,0 0.168,-6.289 -3.302,-11.655 -0.082,-0.127 -0.264,-0.142 -0.367,-0.031 l -1.048,1.134 c -0.114,0.123 -0.32,0.09 -0.387,-0.064 -0.273,-0.629 -0.523,-1.262 -0.751,-1.898 -0.057,-0.164 -0.27,-0.209 -0.391,-0.08 l -0.884,0.955 c -0.115,0.127 -0.322,0.09 -0.388,-0.065 -0.914,-2.2 -1.849,-6.006 -1.999,-6.622 -0.012,-0.055 -0.045,-0.102 -0.094,-0.135 -4.017,-2.807 -9.096,-4.193 -13.164,-4.17 -10.308,0.055 -19.013,6.813 -21.818,16.145 -0.1,0.332 -0.582,0.312 -0.65,-0.028 -0.289,-1.483 -0.441,-3.017 -0.441,-4.583 0,-7.583 3.556,-14.335 9.096,-18.713 0.132,-0.105 0.115,-0.306 -0.03,-0.386 -3.677,-2.001 -7.04,-4.621 -9.982,-7.744 -0.435,-0.464 0.127,-1.167 0.677,-0.848 3.198,1.848 6.631,3.365 10.244,4.51 0.273,0.086 0.43,-0.3 0.174,-0.429 -3.994,-2.003 -7.642,-4.728 -10.812,-8.03 -0.429,-0.446 0.121,-1.14 0.66,-0.832 7.606,4.337 16.507,6.832 26.023,6.832 9.947,0 19.224,-2.725 27.048,-7.433 0.542,-0.324 1.12,0.369 0.691,0.833 C 7.281,-5.29 3.724,-2.508 -0.187,-0.422 -0.439,-0.289 -0.271,0.094 0,0 m -0.449,18.075 c -0.607,0 -1.097,0.486 -1.097,1.089 0,0.603 0.49,1.089 1.097,1.089 0.605,0 1.095,-0.486 1.095,-1.089 0,-0.603 -0.49,-1.089 -1.095,-1.089"
             style="fill:#ffffff;fill-opacity:1;fill-rule:nonzero;stroke:none"
             id="path9540"
             inkscape:connector-curvature="0" />
        </g>
        <g
           id="g9542"
           transform="translate(426.8091,1154.5513)">
          <path
             d="m 0,0 c -1.048,-1.87 -3.057,-3.135 -5.364,-3.135 -2.299,0 -4.302,1.257 -5.352,3.119 l -29.417,-4.27 v -57.842 c 0,-4.286 1.846,-8.731 5.487,-13.21 2.849,-3.504 6.804,-7.047 11.758,-10.533 8.385,-5.899 17.524,-9.943 17.524,-9.943 0,0 9.141,4.044 17.523,9.943 4.956,3.486 8.912,7.029 11.758,10.533 3.642,4.479 5.487,8.924 5.487,13.21 v 57.861 z m 21.333,-61.06 c -3.119,1.905 -6.469,3.496 -10.004,4.722 -0.271,0.095 -0.439,-0.287 -0.187,-0.422 3.911,-2.086 7.468,-4.866 10.552,-8.204 0.429,-0.464 -0.149,-1.156 -0.691,-0.831 -7.825,4.706 -17.101,7.433 -27.048,7.433 -9.516,0 -18.418,-2.495 -26.023,-6.834 -0.539,-0.307 -1.089,0.386 -0.66,0.833 3.17,3.301 6.818,6.026 10.812,8.032 0.256,0.126 0.099,0.514 -0.174,0.428 -3.613,-1.144 -7.046,-2.664 -10.245,-4.511 -0.549,-0.318 -1.111,0.385 -0.676,0.847 2.942,3.123 6.305,5.743 9.982,7.744 0.145,0.08 0.162,0.283 0.03,0.386 -5.54,4.378 -9.096,11.132 -9.096,18.715 0,1.567 0.152,3.098 0.441,4.583 0.068,0.34 0.55,0.359 0.65,0.027 2.805,-9.332 11.51,-16.089 21.818,-16.144 4.068,-0.025 9.147,1.361 13.164,4.168 0.049,0.033 0.082,0.083 0.094,0.136 0.15,0.615 1.085,4.423 1.999,6.621 0.066,0.158 0.273,0.193 0.388,0.068 l 0.884,-0.956 c 0.121,-0.129 0.334,-0.086 0.391,0.08 0.228,0.636 0.478,1.267 0.751,1.897 0.067,0.153 0.273,0.188 0.387,0.065 l 1.048,-1.134 c 0.103,-0.112 0.285,-0.096 0.367,0.031 3.47,5.364 3.302,11.653 3.302,11.653 0.049,1.608 -0.136,3.176 -0.476,4.69 -0.119,0.529 0.582,0.832 0.886,0.385 2.444,-3.604 3.873,-7.945 3.873,-12.621 0,-0.231 -0.004,-0.463 -0.01,-0.693 -0.008,-0.283 0.402,-0.332 0.461,-0.055 0.435,1.999 0.663,4.072 0.663,6.201 v 0.039 c 0,0.578 0.828,0.686 0.969,0.125 0.579,-2.291 0.888,-4.688 0.888,-7.159 0,-8.247 -3.414,-15.698 -8.911,-21.044 -0.113,-0.106 -0.088,-0.289 0.047,-0.365 3.722,-2.108 7.111,-4.855 10.052,-8.114 0.422,-0.467 -0.16,-1.15 -0.698,-0.822"
             style="fill:#040606;fill-opacity:1;fill-rule:nonzero;stroke:none"
             id="path9544"
             inkscape:connector-curvature="0" />
        </g>
        <g
           id="g9546"
           transform="translate(438.7849,1117.3784)">
          <path
             d="m 0,0 c 0,-0.603 -0.49,-1.089 -1.097,-1.089 -0.605,0 -1.095,0.486 -1.095,1.089 0,0.603 0.49,1.089 1.095,1.089 C -0.49,1.089 0,0.603 0,0"
             style="fill:#040606;fill-opacity:1;fill-rule:nonzero;stroke:none"
             id="path9548"
             inkscape:connector-curvature="0" />
        </g>
      </g>
    </g>
  </g>
</svg>
